<?xml version="1.0" standalone="no"?>
<!DOCTYPE svg PUBLIC "-//W3C//DTD SVG 20010904//EN"
 "http://www.w3.org/TR/2001/REC-SVG-20010904/DTD/svg10.dtd">
<svg version="1.0" xmlns="http://www.w3.org/2000/svg"
 width="512.000000pt" height="512.000000pt" viewBox="0 0 512.000000 512.000000"
 preserveAspectRatio="xMidYMid meet">
<metadata>
Created by potrace 1.14, written by Peter Selinger 2001-2017
</metadata>
<g transform="translate(0.000000,512.000000) scale(0.100000,-0.100000)"
fill="#000000" stroke="none">
<path d="M2567 4805 c-20 -10 -126 -178 -127 -202 0 -6 -4 -13 -8 -15 -4 -1
-33 -48 -64 -103 -80 -143 -85 -152 -193 -340 -54 -93 -106 -185 -117 -204
-69 -121 -75 -143 -49 -175 11 -14 41 -16 197 -16 101 0 184 -3 184 -7 0 -4
-21 -51 -46 -104 -45 -92 -49 -97 -83 -103 -109 -18 -219 -48 -316 -86 -78
-30 -97 -37 -107 -39 -33 -6 -326 -175 -388 -223 l-24 -19 -23 92 c-61 240
-157 453 -300 662 -29 44 -59 85 -66 92 -6 7 -43 49 -82 92 -208 234 -472 385
-730 417 -45 6 -63 -13 -74 -80 -16 -101 -6 -443 17 -564 57 -293 157 -545
311 -785 45 -70 167 -218 232 -282 68 -66 179 -158 200 -165 9 -3 -2 -30 -33
-84 -116 -197 -189 -389 -223 -584 -21 -122 -21 -273 -1 -380 23 -121 23 -120
41 -175 158 -470 591 -845 1179 -1021 96 -29 295 -70 383 -80 35 -3 75 -8 90
-10 36 -5 390 -5 426 0 15 2 55 7 90 11 34 3 94 12 132 20 39 8 81 16 95 18
14 3 70 17 125 32 533 146 976 490 1157 900 36 81 72 185 82 240 4 17 9 41 11
55 31 155 20 331 -34 548 -30 119 -136 354 -208 461 -28 42 -28 45 0 58 50 24
212 175 302 283 229 275 404 690 443 1050 13 119 8 462 -7 497 -18 45 -30 47
-121 28 -14 -3 -36 -7 -49 -10 -145 -27 -355 -143 -508 -280 -69 -62 -102 -96
-199 -210 -44 -51 -149 -216 -195 -305 -79 -152 -126 -274 -168 -436 l-26
-102 -105 70 c-163 108 -437 233 -559 254 -56 11 -53 14 139 184 47 41 108 96
135 121 28 25 70 64 95 85 65 56 66 57 78 81 16 30 15 39 -8 61 -19 18 -37 19
-210 18 -124 -1 -190 3 -190 9 0 6 12 24 28 41 42 47 73 85 117 139 21 28 49
61 62 75 12 14 96 115 187 225 170 204 184 228 149 263 -15 15 -65 17 -521 17
-324 0 -512 -3 -525 -10z"/>
</g>
</svg>
